<svg width="25" height="25" viewBox="0 0 25 25" fill="none" xmlns="http://www.w3.org/2000/svg">
<path d="M11.8774 14.4569C11.5942 14.8848 11.3622 15.2285 11.1573 15.5656C10.7643 16.2499 10.422 16.9652 9.91109 17.5778C9.82253 17.6856 9.7947 17.8072 9.72303 17.9251C9.54517 18.2556 9.35052 18.5758 9.18308 18.8894C9.02574 19.1861 8.88533 19.4931 8.69726 19.8404C8.55521 19.8463 8.36913 19.8486 8.20356 19.8172C7.93318 19.7683 7.83934 19.6189 7.94915 19.3625C8.08956 19.0555 8.2572 18.7418 8.46508 18.4758C8.66275 18.2266 8.79295 17.9364 8.87922 17.6427C8.98299 17.2442 9.17094 16.8969 9.40965 16.5802C9.50843 16.4556 9.57358 16.3105 9.64895 16.1486C9.86111 15.7236 10.0733 15.2987 10.2855 14.8737C10.5525 14.3205 10.8466 13.7606 11.1342 13.1736C10.888 13.047 10.688 13.1101 10.4646 13.136C10.1702 13.1647 9.86906 13.1664 9.58488 13.1783C9.53063 13.1915 9.46985 13.1776 9.39879 13.1806C8.06796 13.4335 6.73052 13.6592 5.41659 13.9221C4.8138 14.0405 4.20075 14.1755 3.6047 14.321C3.14404 14.4334 2.67308 14.5626 2.23584 14.7123C1.89021 14.8253 1.58478 14.9858 1.23917 15.0988C0.747786 15.2617 0.518338 15.1455 0.281432 14.5859C0.894433 14.4507 1.28677 13.8813 1.91 13.7293C2.42493 13.6037 2.95003 13.4613 3.45822 13.3086C4.57653 12.9498 5.74779 12.8076 6.89915 12.5842C7.94207 12.3872 8.98816 12.2614 9.99805 11.9289C10.0793 11.909 10.1541 11.8621 10.2998 11.8122C10.1752 11.7134 10.0844 11.635 10.0001 11.5838C9.22419 11.2276 8.56085 10.6859 7.83619 10.2454C7.4654 10.0201 7.08436 9.81147 6.72378 9.56927C6.53838 9.45658 6.35668 9.29992 6.22906 9.13009C5.96724 8.76325 5.67482 8.44704 5.26008 8.21796C4.87246 7.98235 4.80265 7.75525 5.01493 7.33027C5.17029 7.37849 5.30865 7.41654 5.45379 7.48158C6.05753 7.77933 6.66127 8.07708 7.23799 8.38144C7.73692 8.66169 8.21925 8.93168 8.68745 9.26249C9.27369 9.66504 9.93168 9.94956 10.6197 10.2985C10.7403 9.91026 10.59 9.58802 10.5004 9.27963C10.4505 9.13388 10.3801 9.02187 10.3303 8.87612C9.89431 7.61871 9.46877 6.34442 9.0431 5.07009C8.73048 4.14138 8.47203 3.19956 8.43038 2.20486C8.42737 2.1338 8.40754 2.05252 8.39431 1.99827C8.29587 1.47685 8.37839 1.2269 9.01265 0.943122C9.20595 0.852919 9.37152 0.884332 9.46173 1.07763C9.5989 1.34568 9.73597 1.61367 9.79185 1.90153C9.95943 2.76508 10.2185 3.59189 10.4944 4.42903C10.5142 4.51031 10.551 4.60188 10.5708 4.68317C10.8983 5.96704 11.2258 7.25102 11.5533 8.53489C11.7222 9.1684 11.891 9.80197 12.087 10.4288C12.1369 10.5745 12.214 10.7136 12.3174 10.9612C12.4403 10.7589 12.5289 10.6511 12.5837 10.523C13.1386 9.26843 13.8323 8.05122 14.5025 6.79687C14.7009 6.43265 14.8485 6.03775 15.0131 5.65306C15.1674 5.28528 15.335 4.97162 15.6578 4.70625C15.9911 4.424 16.336 4.42598 16.6936 4.59713C16.8049 4.64178 16.8958 4.72005 17.0306 4.80201C15.9596 6.9439 14.8922 9.04167 13.8107 11.2003C13.9493 11.2383 14.0437 11.2726 14.1419 11.2631C15.1541 11.1167 16.1965 11.0347 17.1558 10.6715C17.3389 10.5981 17.5286 10.5519 17.7182 10.5056C18.8293 10.2346 19.9337 9.93649 21.0616 9.67572C21.9016 9.47085 22.755 9.32008 23.5915 9.15924C23.771 9.12988 23.9438 9.0733 24.0574 9.30403C24.1646 9.50761 24.1332 9.67318 23.9662 9.87181C23.7891 10.0873 23.5753 10.2112 23.2874 10.2671C22.4678 10.4382 21.6482 10.6095 20.852 10.818C20.0999 11.0301 19.3544 11.2694 18.6088 11.5087C18.5444 11.5388 18.48 11.5689 18.3986 11.5886C18.0127 11.6541 17.5797 11.6449 17.2135 11.7914C16.8474 11.9382 16.5149 12.1054 16.1289 12.1708C15.5635 12.2657 15.001 12.4316 14.4319 12.5703C14.468 12.7769 14.6504 12.8185 14.7683 12.8902C15.5335 13.3783 16.2984 13.8665 17.0737 14.3377L19.1299 15.5876C19.2816 15.6798 19.423 15.7888 19.5645 15.898C19.7059 16.007 19.7998 16.1564 19.6974 16.3249C19.6117 16.5037 19.4757 16.6517 19.239 16.6233C19.0632 16.6087 18.8911 16.5503 18.7291 16.475C18.4389 16.3448 18.132 16.2043 17.8557 16.0133C17.3772 15.6995 16.8642 15.4799 16.3205 15.3111C16.2092 15.2664 16.0978 15.2219 16.007 15.1435C15.2258 14.5302 14.2667 14.2473 13.424 13.7351C13.4071 13.7249 13.3632 13.7212 13.2921 13.7242C13.3017 13.8223 13.2842 13.9271 13.3209 14.0186C13.4104 14.3269 13.4831 14.625 13.61 14.9098C13.9203 15.6524 14.0784 16.4178 14.2092 17.1898C14.4025 18.2767 14.6229 19.357 14.7994 20.4337C14.9266 21.2497 14.9894 22.0957 15.0727 22.908C15.1015 23.2024 15.1471 23.5072 15.186 23.7848C15.2089 23.9371 15.2112 24.1232 15.0149 24.1424C14.9168 24.152 14.7687 24.0157 14.7321 23.9242C14.3917 23.1173 14.0513 22.3102 13.938 21.4335C13.8445 20.638 13.6798 19.8456 13.5051 19.0699C13.3927 18.6093 13.1991 18.1684 13.0494 17.7311C12.9797 17.5041 12.8931 17.2667 12.8673 17.0434C12.7694 16.4069 12.553 15.8137 12.2012 15.2535C12.0938 15.05 12.0344 14.8061 11.8774 14.4568L11.8774 14.4569Z" fill="#EB7542"/>
</svg>
