<svg width="25" height="24" viewBox="0 0 25 24" fill="none" xmlns="http://www.w3.org/2000/svg">
<path d="M13.5286 2C14.6536 2.003 15.2246 2.009 15.7176 2.023L15.9116 2.03C16.1356 2.038 16.3566 2.048 16.6236 2.06C17.6876 2.11 18.4136 2.278 19.0506 2.525C19.7106 2.779 20.2666 3.123 20.8226 3.678C21.3313 4.17773 21.7248 4.78247 21.9756 5.45C22.2226 6.087 22.3906 6.813 22.4406 7.878C22.4526 8.144 22.4626 8.365 22.4706 8.59L22.4766 8.784C22.4916 9.276 22.4976 9.847 22.4996 10.972L22.5006 11.718V13.028C22.503 13.7574 22.4953 14.4868 22.4776 15.216L22.4716 15.41C22.4636 15.635 22.4536 15.856 22.4416 16.122C22.3916 17.187 22.2216 17.912 21.9756 18.55C21.7248 19.2175 21.3313 19.8223 20.8226 20.322C20.3228 20.8307 19.7181 21.2242 19.0506 21.475C18.4136 21.722 17.6876 21.89 16.6236 21.94L15.9116 21.97L15.7176 21.976C15.2246 21.99 14.6536 21.997 13.5286 21.999L12.7826 22H11.4736C10.7438 22.0026 10.0141 21.9949 9.28457 21.977L9.09057 21.971C8.85318 21.962 8.61584 21.9517 8.37857 21.94C7.31457 21.89 6.58857 21.722 5.95057 21.475C5.2834 21.2241 4.67901 20.8306 4.17957 20.322C3.67051 19.8224 3.27668 19.2176 3.02557 18.55C2.77857 17.913 2.61057 17.187 2.56057 16.122L2.53057 15.41L2.52557 15.216C2.50713 14.4868 2.4988 13.7574 2.50057 13.028V10.972C2.4978 10.2426 2.50514 9.5132 2.52257 8.784L2.52957 8.59C2.53757 8.365 2.54757 8.144 2.55957 7.878C2.60957 6.813 2.77757 6.088 3.02457 5.45C3.27626 4.7822 3.67079 4.17744 4.18057 3.678C4.67972 3.16955 5.28376 2.77607 5.95057 2.525C6.58857 2.278 7.31357 2.11 8.37857 2.06C8.64457 2.048 8.86657 2.038 9.09057 2.03L9.28457 2.024C10.0138 2.00623 10.7432 1.99857 11.4726 2.001L13.5286 2ZM12.5006 7C11.1745 7 9.90272 7.52678 8.96503 8.46447C8.02735 9.40215 7.50057 10.6739 7.50057 12C7.50057 13.3261 8.02735 14.5979 8.96503 15.5355C9.90272 16.4732 11.1745 17 12.5006 17C13.8267 17 15.0984 16.4732 16.0361 15.5355C16.9738 14.5979 17.5006 13.3261 17.5006 12C17.5006 10.6739 16.9738 9.40215 16.0361 8.46447C15.0984 7.52678 13.8267 7 12.5006 7ZM12.5006 9C12.8945 8.99993 13.2847 9.07747 13.6487 9.22817C14.0127 9.37887 14.3434 9.5998 14.622 9.87833C14.9007 10.1569 15.1217 10.4875 15.2725 10.8515C15.4233 11.2154 15.501 11.6055 15.5011 11.9995C15.5011 12.3935 15.4236 12.7836 15.2729 13.1476C15.1222 13.5116 14.9013 13.8423 14.6227 14.121C14.3442 14.3996 14.0135 14.6206 13.6496 14.7714C13.2856 14.9223 12.8955 14.9999 12.5016 15C11.7059 15 10.9429 14.6839 10.3802 14.1213C9.81764 13.5587 9.50157 12.7956 9.50157 12C9.50157 11.2044 9.81764 10.4413 10.3802 9.87868C10.9429 9.31607 11.7059 9 12.5016 9M17.7516 5.5C17.42 5.5 17.1021 5.6317 16.8677 5.86612C16.6333 6.10054 16.5016 6.41848 16.5016 6.75C16.5016 7.08152 16.6333 7.39946 16.8677 7.63388C17.1021 7.8683 17.42 8 17.7516 8C18.0831 8 18.401 7.8683 18.6355 7.63388C18.8699 7.39946 19.0016 7.08152 19.0016 6.75C19.0016 6.41848 18.8699 6.10054 18.6355 5.86612C18.401 5.6317 18.0831 5.5 17.7516 5.5Z" fill="#EB7542"/>
</svg>
