<svg width="60" height="60" viewBox="0 0 60 60" fill="none" xmlns="http://www.w3.org/2000/svg">
<rect width="60" height="60" rx="20" fill="#FFEACC"/>
<g clip-path="url(#clip0_401_5652)">
<path d="M32.586 14H22C20.9391 14 19.9217 14.4214 19.1716 15.1716C18.4214 15.9217 18 16.9391 18 18V42C18 43.0609 18.4214 44.0783 19.1716 44.8284C19.9217 45.5786 20.9391 46 22 46H38C39.0609 46 40.0783 45.5786 40.8284 44.8284C41.5786 44.0783 42 43.0609 42 42V23.414C41.9999 22.8836 41.7891 22.375 41.414 22L34 14.586C33.625 14.2109 33.1164 14.0001 32.586 14V14ZM33 21V17L39 23H35C34.4696 23 33.9609 22.7893 33.5858 22.4142C33.2107 22.0391 33 21.5304 33 21ZM35.708 29.708L29.708 35.708C29.6151 35.8011 29.5048 35.875 29.3833 35.9254C29.2618 35.9758 29.1315 36.0018 29 36.0018C28.8685 36.0018 28.7382 35.9758 28.6167 35.9254C28.4952 35.875 28.3849 35.8011 28.292 35.708L25.292 32.708C25.199 32.615 25.1253 32.5046 25.075 32.3832C25.0246 32.2617 24.9987 32.1315 24.9987 32C24.9987 31.8685 25.0246 31.7383 25.075 31.6168C25.1253 31.4954 25.199 31.385 25.292 31.292C25.4798 31.1042 25.7344 30.9987 26 30.9987C26.1315 30.9987 26.2617 31.0246 26.3832 31.075C26.5046 31.1253 26.615 31.199 26.708 31.292L29 33.586L34.292 28.292C34.4798 28.1042 34.7344 27.9987 35 27.9987C35.2655 27.9987 35.5202 28.1042 35.708 28.292C35.8958 28.4798 36.0013 28.7344 36.0013 29C36.0013 29.2656 35.8958 29.5202 35.708 29.708Z" fill="#EB7542"/>
</g>
<defs>
<clipPath id="clip0_401_5652">
<rect width="32" height="32" fill="white" transform="translate(14 14)"/>
</clipPath>
</defs>
</svg>
