<svg width="60" height="60" viewBox="0 0 60 60" fill="none" xmlns="http://www.w3.org/2000/svg">
<rect width="60" height="60" rx="20" fill="#FFEACC"/>
<path d="M28.4027 17.2C27.9784 17.2 27.5714 17.3685 27.2714 17.6686C26.9713 17.9686 26.8027 18.3756 26.8027 18.8C26.8027 19.2243 26.9713 19.6313 27.2714 19.9313C27.5714 20.2314 27.9784 20.4 28.4027 20.4H31.6027C32.0271 20.4 32.434 20.2314 32.7341 19.9313C33.0342 19.6313 33.2027 19.2243 33.2027 18.8C33.2027 18.3756 33.0342 17.9686 32.7341 17.6686C32.434 17.3685 32.0271 17.2 31.6027 17.2H28.4027Z" fill="#F13E3E"/>
<path fill-rule="evenodd" clip-rule="evenodd" d="M20.4004 22C20.4004 21.1514 20.7375 20.3374 21.3376 19.7373C21.9378 19.1372 22.7517 18.8 23.6004 18.8C23.6004 20.0731 24.1061 21.294 25.0063 22.1942C25.9065 23.0943 27.1274 23.6 28.4004 23.6H31.6004C32.8734 23.6 34.0943 23.0943 34.9945 22.1942C35.8947 21.294 36.4004 20.0731 36.4004 18.8C37.2491 18.8 38.063 19.1372 38.6631 19.7373C39.2632 20.3374 39.6004 21.1514 39.6004 22V39.6C39.6004 40.4487 39.2632 41.2627 38.6631 41.8628C38.063 42.4629 37.2491 42.8 36.4004 42.8H23.6004C22.7517 42.8 21.9378 42.4629 21.3376 41.8628C20.7375 41.2627 20.4004 40.4487 20.4004 39.6V22ZM25.2004 28.4C24.776 28.4 24.3691 28.5686 24.069 28.8687C23.769 29.1687 23.6004 29.5757 23.6004 30C23.6004 30.4244 23.769 30.8314 24.069 31.1314C24.3691 31.4315 24.776 31.6 25.2004 31.6H25.2164C25.6407 31.6 26.0477 31.4315 26.3478 31.1314C26.6478 30.8314 26.8164 30.4244 26.8164 30C26.8164 29.5757 26.6478 29.1687 26.3478 28.8687C26.0477 28.5686 25.6407 28.4 25.2164 28.4H25.2004ZM30.0004 28.4C29.576 28.4 29.1691 28.5686 28.869 28.8687C28.569 29.1687 28.4004 29.5757 28.4004 30C28.4004 30.4244 28.569 30.8314 28.869 31.1314C29.1691 31.4315 29.576 31.6 30.0004 31.6H34.8004C35.2247 31.6 35.6317 31.4315 35.9318 31.1314C36.2318 30.8314 36.4004 30.4244 36.4004 30C36.4004 29.5757 36.2318 29.1687 35.9318 28.8687C35.6317 28.5686 35.2247 28.4 34.8004 28.4H30.0004ZM25.2004 34.8C24.776 34.8 24.3691 34.9686 24.069 35.2687C23.769 35.5687 23.6004 35.9757 23.6004 36.4C23.6004 36.8244 23.769 37.2314 24.069 37.5314C24.3691 37.8315 24.776 38 25.2004 38H25.2164C25.6407 38 26.0477 37.8315 26.3478 37.5314C26.6478 37.2314 26.8164 36.8244 26.8164 36.4C26.8164 35.9757 26.6478 35.5687 26.3478 35.2687C26.0477 34.9686 25.6407 34.8 25.2164 34.8H25.2004ZM30.0004 34.8C29.576 34.8 29.1691 34.9686 28.869 35.2687C28.569 35.5687 28.4004 35.9757 28.4004 36.4C28.4004 36.8244 28.569 37.2314 28.869 37.5314C29.1691 37.8315 29.576 38 30.0004 38H34.8004C35.2247 38 35.6317 37.8315 35.9318 37.5314C36.2318 37.2314 36.4004 36.8244 36.4004 36.4C36.4004 35.9757 36.2318 35.5687 35.9318 35.2687C35.6317 34.9686 35.2247 34.8 34.8004 34.8H30.0004Z" fill="#EB7542"/>
</svg>
